<?xml version="1.0" standalone="no"?>
<!DOCTYPE svg PUBLIC "-//W3C//DTD SVG 20010904//EN"
 "http://www.w3.org/TR/2001/REC-SVG-20010904/DTD/svg10.dtd">
<svg version="1.0" xmlns="http://www.w3.org/2000/svg"
 width="800.000000pt" height="600.000000pt" viewBox="0 0 800.000000 600.000000"
 preserveAspectRatio="xMidYMid meet">

<g transform="translate(0.000000,600.000000) scale(0.100000,-0.100000)"
fill="#000000" stroke="none">
<path d="M5574 3490 c-11 -4 -33 -23 -48 -41 -25 -29 -28 -39 -23 -83 3 -40
11 -55 35 -77 120 -107 311 28 226 159 -29 44 -130 66 -190 42z"/>
<path d="M4186 3374 c-272 -66 -410 -367 -288 -628 102 -218 401 -310 649
-201 47 21 143 98 143 115 0 3 -34 37 -76 75 l-75 68 -32 -31 c-54 -51 -95
-66 -172 -66 -143 0 -235 93 -235 239 0 146 92 239 235 239 77 0 118 -15 172
-66 l32 -31 75 68 c42 38 76 72 76 75 0 17 -90 89 -140 112 -104 49 -244 61
-364 32z"/>
<path d="M4955 3177 c-106 -35 -187 -104 -227 -192 -33 -75 -32 -200 3 -276
63 -135 209 -214 374 -202 209 14 345 149 345 343 0 142 -79 261 -205 310 -74
28 -228 37 -290 17z m218 -216 c47 -47 54 -153 14 -214 -37 -56 -130 -71 -187
-29 -76 56 -80 209 -6 258 62 40 130 34 179 -15z"/>
<path d="M6209 3177 c-20 -8 -53 -24 -73 -36 l-36 -23 0 31 0 31 -114 0 -115
0 2 -332 2 -333 118 -3 117 -3 0 186 c0 203 6 235 55 273 31 24 89 29 129 11
48 -22 56 -59 56 -272 l0 -194 116 -1 115 -1 -3 252 c-3 223 -5 256 -22 287
-26 49 -65 88 -111 113 -51 26 -183 34 -236 14z"/>
<path d="M5523 2848 l2 -333 118 -3 117 -3 0 335 0 336 -120 0 -119 0 2 -332z"/>
</g>
</svg>
